<svg width="20" height="20" viewBox="0 0 20 20" fill="none" xmlns="http://www.w3.org/2000/svg">
<g clip-path="url(#clip0_1_162)">
<path d="M1.79595 12.9258L5.13389 14.2448V0.267433C5.13389 0.119663 5.25397 0.000314627 5.40148 0H8.07696C8.22436 0.000314627 8.34418 0.119663 8.34418 0.267118V14.2449L11.6823 12.9258C11.7942 12.8826 11.9219 12.9181 11.9939 13.0137C12.0668 13.1101 12.0662 13.2423 11.9928 13.3376L6.95159 19.8953C6.90067 19.9615 6.82228 19.9999 6.73906 20.0001C6.65658 20.0001 6.57787 19.9615 6.52716 19.8953L1.48573 13.3376C1.44876 13.2893 1.43025 13.2317 1.43051 13.1747C1.43051 13.119 1.44813 13.0616 1.48405 13.0131C1.55647 12.9181 1.68405 12.8819 1.79595 12.9258ZM18.5696 12.8159H17.4208L16.7725 11.2566H14.8203L14.1896 12.8159H13.0671L15.2408 7.59515H16.3871L18.5696 12.8159ZM16.4997 10.4925L15.9801 9.24563C15.906 9.0687 15.8453 8.90059 15.7914 8.73819C15.7314 8.918 15.6725 9.0805 15.6128 9.23509L15.0912 10.4922H16.4997V10.4925V10.4925ZM17.8556 14.0012H13.4656V14.8032H16.4172L13.1772 18.6712V19.2227H17.9004V18.421H14.6332L17.8549 14.5683V14.0013H17.8556V14.0012Z" fill="#fff"/>
</g>
<defs>
<clipPath id="clip0_1_162">
<rect width="20" height="20" fill="white"/>
</clipPath>
</defs>
</svg>
