<svg width="20" height="20" viewBox="0 0 20 20" fill="none" xmlns="http://www.w3.org/2000/svg">
<path d="M9.99999 0.799988C4.92679 0.799988 0.799988 4.92679 0.799988 9.99999C0.799988 15.0732 4.92679 19.2 9.99999 19.2C15.0732 19.2 19.2 15.0732 19.2 9.99999C19.2 8.17599 18.6641 6.47572 17.7453 5.04452L17.1976 5.69139C17.9556 6.95299 18.4 8.42399 18.4 9.99999C18.4 14.6316 14.6316 18.4 9.99999 18.4C5.36839 18.4 1.59999 14.6316 1.59999 9.99999C1.59999 5.36839 5.36839 1.59999 9.99999 1.59999C12.1772 1.59999 14.1576 2.43989 15.6516 3.80389L16.175 3.18593C14.541 1.70393 12.374 0.799988 9.99999 0.799988ZM17.2945 3.10155L9.56561 12.2219L6.31249 9.18749L5.76718 9.77264L9.63358 13.3789L17.9055 3.61874L17.2945 3.10155Z" fill="#4C837A"/>
</svg>
