<svg width="20" height="20" viewBox="0 0 20 20" fill="none" xmlns="http://www.w3.org/2000/svg">
<g clip-path="url(#clip0_1_183)">
<path d="M12.7587 7.24603C12.5 7.24603 12.2903 7.45571 12.2903 7.71442V16.5669C12.2903 16.8254 12.5 17.0353 12.7587 17.0353C13.0174 17.0353 13.2271 16.8254 13.2271 16.5669V7.71442C13.2271 7.45571 13.0174 7.24603 12.7587 7.24603Z" fill="#F53649"/>
<path d="M7.23175 7.24603C6.97304 7.24603 6.76337 7.45571 6.76337 7.71442V16.5669C6.76337 16.8254 6.97304 17.0353 7.23175 17.0353C7.49046 17.0353 7.70014 16.8254 7.70014 16.5669V7.71442C7.70014 7.45571 7.49046 7.24603 7.23175 7.24603Z" fill="#F53649"/>
<path d="M3.2037 5.95416V17.4941C3.2037 18.1762 3.45381 18.8168 3.89072 19.2764C4.32562 19.7372 4.93086 19.9989 5.56427 20H14.4262C15.0598 19.9989 15.6651 19.7372 16.0998 19.2764C16.5367 18.8168 16.7868 18.1762 16.7868 17.4941V5.95416C17.6553 5.72363 18.2181 4.88457 18.1019 3.99336C17.9856 3.10233 17.2264 2.4358 16.3277 2.43562H13.9297V1.85014C13.9324 1.35779 13.7377 0.885018 13.3892 0.537207C13.0406 0.18958 12.5671 -0.00399414 12.0748 3.10241e-05H7.9157C7.42335 -0.00399414 6.94984 0.18958 6.6013 0.537207C6.25276 0.885018 6.05809 1.35779 6.06083 1.85014V2.43562H3.66275C2.76404 2.4358 2.00493 3.10233 1.88857 3.99336C1.77238 4.88457 2.33518 5.72363 3.2037 5.95416V5.95416ZM14.4262 19.0632H5.56427C4.76345 19.0632 4.14046 18.3753 4.14046 17.4941V5.99533H15.85V17.4941C15.85 18.3753 15.227 19.0632 14.4262 19.0632ZM6.9976 1.85014C6.99449 1.60625 7.09036 1.37151 7.26344 1.19935C7.43634 1.02718 7.67163 0.932588 7.9157 0.936796H12.0748C12.3189 0.932588 12.5541 1.02718 12.727 1.19935C12.9001 1.37133 12.996 1.60625 12.9929 1.85014V2.43562H6.9976V1.85014ZM3.66275 3.37239H16.3277C16.7934 3.37239 17.1708 3.74984 17.1708 4.21547C17.1708 4.68111 16.7934 5.05856 16.3277 5.05856H3.66275C3.19711 5.05856 2.81966 4.68111 2.81966 4.21547C2.81966 3.74984 3.19711 3.37239 3.66275 3.37239V3.37239Z" fill="#F53649"/>
<path d="M9.99529 7.24603C9.73659 7.24603 9.52692 7.45571 9.52692 7.71442V16.5669C9.52692 16.8254 9.73659 17.0353 9.99529 17.0353C10.254 17.0353 10.4637 16.8254 10.4637 16.5669V7.71442C10.4637 7.45571 10.254 7.24603 9.99529 7.24603Z" fill="#F53649"/>
</g>
<defs>
<clipPath id="clip0_1_183">
<rect width="20" height="20" fill="white"/>
</clipPath>
</defs>
</svg>
