<svg width="13" height="12" viewBox="0 0 13 12" fill="none" xmlns="http://www.w3.org/2000/svg">
<g clip-path="url(#clip0_1_129)">
<path d="M11.7124 4.92857H8.10718C7.99006 4.92857 7.89511 4.83262 7.89511 4.71429V1.07143C7.89511 0.479736 7.42032 0 6.83474 0C6.24917 0 5.77438 0.479736 5.77438 1.07143V4.71429C5.77438 4.83262 5.67943 4.92857 5.56231 4.92857H1.95709C1.37151 4.92857 0.896729 5.40831 0.896729 6C0.896729 6.59169 1.37151 7.07143 1.95709 7.07143H5.56231C5.67943 7.07143 5.77438 7.16738 5.77438 7.28571V10.9286C5.77438 11.5203 6.24917 12 6.83474 12C7.42032 12 7.89511 11.5203 7.89511 10.9286V7.28571C7.89511 7.16738 7.99006 7.07143 8.10718 7.07143H11.7124C12.298 7.07143 12.7728 6.59169 12.7728 6C12.7728 5.40831 12.298 4.92857 11.7124 4.92857Z" fill="white"/>
</g>
<defs>
<clipPath id="clip0_1_129">
<rect width="11.876" height="12" fill="white" transform="translate(0.896729)"/>
</clipPath>
</defs>
</svg>
