<svg width="32" height="32" viewBox="0 0 32 32" fill="none" xmlns="http://www.w3.org/2000/svg">
<g clip-path="url(#clip0_17_494)">
<path d="M31.7958 29.8852L17.2299 0.753394C16.9576 0.276917 16.5492 0.00469971 16.0047 0.00469971C15.4602 0.00469971 14.9837 0.276981 14.7795 0.753394L0.145551 30.0895C-0.0586444 30.4979 -0.0586444 30.9743 0.213637 31.3827C0.485919 31.723 0.894309 31.9953 1.37072 31.9953H30.6387C31.3874 31.9953 32 31.3827 32 30.634C31.9999 30.3617 31.9319 30.0895 31.7958 29.8852ZM3.4807 29.3407L16.0047 4.2928L28.4606 29.3407H3.4807Z" fill="white"/>
<path d="M16.0047 11.6439C15.256 11.6439 14.6434 12.2564 14.6434 13.0051V20.0839C14.6434 20.8326 15.256 21.4452 16.0047 21.4452C16.7534 21.4452 17.2979 20.8326 17.366 20.0839V13.0051C17.366 12.2564 16.7534 11.6439 16.0047 11.6439Z" fill="white"/>
<path d="M16.0047 23.5552C15.256 23.5552 14.6434 24.1678 14.6434 24.9165V25.393C14.6434 26.1417 15.256 26.7543 16.0047 26.7543C16.7534 26.7543 17.2979 26.1417 17.366 25.393V24.9165C17.366 24.1678 16.7534 23.5552 16.0047 23.5552Z" fill="white"/>
</g>
<defs>
<clipPath id="clip0_17_494">
<rect width="32" height="32" fill="white"/>
</clipPath>
</defs>
</svg>
